<svg xmlns="http://www.w3.org/2000/svg" width="104" height="104" viewBox="0 0 104 104" version="1.1">
	<path d="M 88.946 4.329 C 86.441 5.523, 81.941 7.588, 78.946 8.918 C 75.951 10.247, 64.327 15.491, 53.117 20.570 L 32.733 29.804 40.617 30.462 C 44.952 30.824, 49.850 31.326, 51.500 31.577 C 54.286 32.003, 54.232 31.919, 50.750 30.411 C 48.688 29.517, 47 28.384, 47 27.893 C 47 27.402, 50.831 27, 55.513 27 L 64.025 27 60.500 34 C 58.561 37.850, 56.712 41, 56.391 41 C 56.070 41, 53.303 40.272, 50.240 39.382 C 36.197 35.299, 20.937 42.283, 14.280 55.839 C 11.886 60.714, 11.506 62.681, 11.541 70 C 11.575 77.233, 11.983 79.273, 14.276 83.687 C 17.414 89.729, 22.839 95.317, 28.500 98.339 C 31.771 100.085, 34.231 100.477, 42 100.487 C 50.143 100.498, 52.190 100.148, 56.330 98.033 C 66.475 92.850, 72.116 83.677, 72.798 71.250 C 73.289 62.311, 72.897 61.743, 68.084 64.409 C 66.103 65.507, 65.624 66.640, 65.418 70.707 C 65.070 77.590, 61.538 84.592, 56.587 88.211 C 51.129 92.201, 48.447 93.149, 42.500 93.190 C 24.933 93.310, 13.586 74.592, 21.751 58.962 C 26.443 49.981, 36.285 44.859, 45.770 46.461 C 51.764 47.474, 52.543 48.274, 51.049 51.881 C 49.802 54.892, 49.680 54.937, 44.140 54.424 C 39.455 53.990, 37.840 54.291, 34.604 56.201 C 29.823 59.022, 27 64.065, 27 69.784 C 27 83.529, 42.832 90.498, 52.834 81.155 C 55.488 78.676, 58.851 70.517, 57.695 69.362 C 56.632 68.299, 52.028 71.518, 50.975 74.060 C 49.562 77.471, 43.830 80.425, 40.329 79.546 C 32.887 77.679, 30.432 68.415, 35.923 62.923 C 38.064 60.782, 39.803 60, 42.423 60 C 46.551 60, 46.881 61.150, 44 65.500 C 42.907 67.150, 42.010 68.792, 42.007 69.148 C 42.003 69.504, 48.412 66.651, 56.250 62.807 C 64.088 58.964, 71.963 55.208, 73.750 54.461 C 75.537 53.713, 77 52.854, 77 52.551 C 77 52.248, 73.963 52.052, 70.250 52.116 C 66.537 52.180, 64.287 52.438, 65.250 52.689 C 68.736 53.600, 66.871 54.729, 60.835 55.359 C 57.445 55.714, 54.456 55.789, 54.194 55.527 C 53.712 55.046, 57.133 50.397, 80.890 19.250 C 88.126 9.762, 93.924 2.035, 93.773 2.079 C 93.623 2.122, 91.451 3.135, 88.946 4.329 M 80.210 29.981 C 73.052 37.902, 72.752 37.377, 85.276 38.851 L 92.052 39.649 88.892 36.389 C 85.997 33.402, 85.774 32.706, 86.220 28.065 C 86.487 25.279, 86.660 23.004, 86.603 23.010 C 86.546 23.015, 83.669 26.152, 80.210 29.981" stroke="none" fill="black" fill-rule="evenodd"/>
</svg>